<?xml version="1.0" encoding="UTF-8" standalone="no"?>
<!-- Generator: Adobe Illustrator 16.0.0, SVG Export Plug-In . SVG Version: 6.00 Build 0)  -->

<svg
   xmlns:dc="http://purl.org/dc/elements/1.1/"
   xmlns:cc="http://creativecommons.org/ns#"
   xmlns:rdf="http://www.w3.org/1999/02/22-rdf-syntax-ns#"
   xmlns:svg="http://www.w3.org/2000/svg"
   xmlns="http://www.w3.org/2000/svg"
   xmlns:sodipodi="http://sodipodi.sourceforge.net/DTD/sodipodi-0.dtd"
   xmlns:inkscape="http://www.inkscape.org/namespaces/inkscape"
   version="1.1"
   id="Layer_1"
   x="0px"
   y="0px"
   width="200px"
   height="200px"
   viewBox="0 0 200 200"
   enable-background="new 0 0 200 200"
   xml:space="preserve"
   inkscape:version="0.91 r13725"
   sodipodi:docname="logo.svg"
   inkscape:export-filename="/Users/ricardo/code/opentrack/project/static/img/logo.svg"
   inkscape:export-xdpi="38.02"
   inkscape:export-ydpi="38.02"><metadata
     id="metadata35"><rdf:RDF><cc:Work
         rdf:about=""><dc:format>image/svg+xml</dc:format><dc:type
           rdf:resource="http://purl.org/dc/dcmitype/StillImage" /><dc:title></dc:title></cc:Work></rdf:RDF></metadata><defs
     id="defs33" /><sodipodi:namedview
     pagecolor="#ffffff"
     bordercolor="#666666"
     borderopacity="1"
     objecttolerance="10"
     gridtolerance="10"
     guidetolerance="10"
     inkscape:pageopacity="0"
     inkscape:pageshadow="2"
     inkscape:window-width="1131"
     inkscape:window-height="603"
     id="namedview31"
     showgrid="false"
     inkscape:zoom="1.18"
     inkscape:cx="100"
     inkscape:cy="100"
     inkscape:window-x="0"
     inkscape:window-y="0"
     inkscape:window-maximized="0"
     inkscape:current-layer="Layer_1" /><path
     d="m 180.77476,41.396861 -9.31192,3.565852 c 12.10258,15.369983 19.34087,34.747673 19.34087,55.828837 0,18.93002 -5.83327,36.49184 -15.78277,51.00911 l -68.7531,-52.947077 26.96287,86.130817 c -1.70734,0.66666 -3.436,1.29069 -5.19567,1.85463 L 100.45395,98.853583 73.18875,186.94562 c -1.513549,-0.47868 -3.007719,-0.99999 -4.486384,-1.55618 L 95.79121,98.853583 26.291988,152.3743 C 16.098304,137.74656 10.102247,119.9735 10.102247,100.79155 c 0,-49.900609 40.451097,-90.351706 90.351703,-90.351706 1.46316,0 2.91663,0.04263 4.36429,0.110464 l -4.24608,-9.7208219 c -0.0407,0 -0.0794,-0.003876 -0.11821,-0.003876 -55.121478,0 -99.80508559,44.68554583 -99.80508559,99.80507983 0,55.12148 44.68360759,99.80509 99.80508559,99.80509 55.11954,0 99.80508,-44.68361 99.80508,-99.80509 0.002,-22.17998 -7.24604,-42.664247 -19.48427,-59.233829"
     id="path21"
     style="opacity:1;fill:#f26522"
     inkscape:connector-curvature="0" /><path
     d="M 158.81182,45.387127 C 145.7267,33.129512 129.34316,24.358292 111.12825,20.544381 l 4.83909,11.102589 c 11.91072,3.484458 22.773,9.383616 32.09848,17.085081 l 10.746,-3.344924 z"
     id="path23"
     style="opacity:1;fill:#808285"
     inkscape:connector-curvature="0" /><path
     d="m 170.49968,42.892969 9.46888,-3.556162 C 161.93969,16.680084 134.26171,2.0135814 103.06438,1.6337407 l 4.35267,9.7750843 c 25.25941,1.540681 47.65644,13.455276 63.08263,31.484144"
     id="path25"
     style="opacity:1;fill:#808285"
     inkscape:connector-curvature="0" /><path
     d="m 128.09899,46.794088 c 1.45928,3.298412 -0.0407,7.160772 -3.33717,8.621996 -3.30423,1.463162 -7.16659,-0.03294 -8.62588,-3.32942 -1.4651,-3.306164 0.0271,-7.174338 3.33524,-8.633624 3.29841,-1.461224 7.16077,0.03294 8.62781,3.341048"
     id="path27"
     style="opacity:1;fill:#808285"
     inkscape:connector-curvature="0" /><path
     d="m 110.91701,61.431521 c -0.0155,-0.263563 -0.24225,-0.461235 -0.50387,-0.44767 -0.26163,0.01744 -0.46317,0.242246 -0.44573,0.503871 l 0.20736,3.457325 c -0.4593,-0.158913 -0.92247,-0.315887 -1.38952,-0.472862 -4.49995,-1.513549 -9.15106,-3.079423 -11.352586,-6.503804 -2.038736,-3.168569 -3.244149,-8.20921 -2.527103,-10.571587 0.168603,-0.560071 0.436042,-0.92247 0.792627,-1.079445 0.112402,-0.04845 0.215114,-0.06202 0.323639,-0.0407 0.870146,0.172478 1.945715,2.304237 2.893379,4.184061 0.94185,1.866259 1.914704,3.79647 3.079424,4.947619 1.21704,1.203475 2.70152,1.986412 7.43596,2.926324 1.96316,0.389531 4.54065,0.812007 7.87976,1.294559 2.15695,0.312012 4.02321,0.625962 5.7073,0.959292 7.49604,1.486418 10.59097,3.259653 13.15102,5.639472 2.03873,1.891452 3.12981,6.95341 2.87593,10.497944 -0.12984,1.77905 -0.58139,3.061982 -1.23642,3.517403 -0.22286,0.153099 -0.54069,0.327516 -0.78681,0.279067 -0.68604,-0.135658 -1.13565,-2.023234 -1.53681,-3.689882 -0.53681,-2.242223 -1.14339,-4.780954 -2.64144,-6.110396 -2.21509,-1.965095 -5.22862,-2.790667 -6.82744,-3.108493 -0.73449,-0.145347 -1.20348,-0.191858 -1.22673,-0.195734 -0.13178,-0.01163 -0.2655,0.03294 -0.36628,0.12403 -0.0988,0.09108 -0.1531,0.218989 -0.1531,0.354647 0.004,0.633714 0.12016,15.573469 1.40309,20.282719 1.2558,4.596847 2.47865,7.201469 6.03675,9.581288 1.25193,0.835262 2.96315,1.441844 4.62011,2.029047 2.64919,0.937971 5.15304,1.825561 4.85847,3.323611 -0.17054,0.84688 -2.50966,1.26742 -7.36038,0.30619 -3.36625,-0.66666 -6.90497,-1.82168 -8.41851,-2.74415 -1.57557,-0.961232 -6.83908,-4.519331 -8.39138,-9.91462 -0.0426,-0.145347 -0.15116,-0.263563 -0.29264,-0.315888 -0.24224,-0.08915 -0.50193,-0.160851 -0.76549,-0.213176 -3.40888,-0.676349 -7.93208,1.839127 -9.75571,3.835229 -1.05231,1.153087 -2.15307,2.71121 -3.21508,4.215069 -2.00773,2.842996 -4.282894,6.065826 -5.839078,5.757686 -0.106588,-0.0213 -0.226742,-0.0756 -0.327516,-0.32364 -0.887587,-2.21315 2.622064,-11.304136 4.957314,-14.635494 2.25191,-3.213142 7.49604,-6.007684 9.48051,-6.298379 0.61433,-0.09302 1.10851,-0.563947 1.23061,-1.174405 0.008,-0.03876 0.01,-0.07946 0.008,-0.120154 -0.1783,-2.959269 -0.44767,-5.709238 -0.70736,-8.370061 -0.21511,-2.193774 -0.41472,-4.27127 -0.54457,-6.24993 l -0.32945,-5.435986 z"
     id="path29"
     style="opacity:1;fill:#808285"
     inkscape:connector-curvature="0" /></svg>